<?xml version="1.0" encoding="UTF-8" standalone="no"?>
<!-- Created with Inkscape (http://www.inkscape.org/) -->

<svg
   xmlns:dc="http://purl.org/dc/elements/1.1/"
   xmlns:cc="http://creativecommons.org/ns#"
   xmlns:rdf="http://www.w3.org/1999/02/22-rdf-syntax-ns#"
   xmlns:svg="http://www.w3.org/2000/svg"
   xmlns="http://www.w3.org/2000/svg"
   xmlns:sodipodi="http://sodipodi.sourceforge.net/DTD/sodipodi-0.dtd"
   xmlns:inkscape="http://www.inkscape.org/namespaces/inkscape"
   width="26"
   height="20"
   id="svg2994"
   version="1.1"
   inkscape:version="0.48.2 r9819"
   sodipodi:docname="camera.svg"
   inkscape:export-filename="C:\Users\jacobsj\Documents\Projects\WebWorkerTest\images\icons\camera.png"
   inkscape:export-xdpi="110.20408"
   inkscape:export-ydpi="110.20408">
  <title
     id="title3774">Camera</title>
  <defs
     id="defs2996" />
  <sodipodi:namedview
     id="base"
     pagecolor="#ffffff"
     bordercolor="#666666"
     borderopacity="1.0"
     inkscape:pageopacity="0.0"
     inkscape:pageshadow="2"
     inkscape:zoom="29.819646"
     inkscape:cx="12.583304"
     inkscape:cy="8.0140723"
     inkscape:current-layer="layer1"
     showgrid="true"
     inkscape:grid-bbox="true"
     inkscape:document-units="px"
     inkscape:window-width="1600"
     inkscape:window-height="1138"
     inkscape:window-x="-8"
     inkscape:window-y="-8"
     inkscape:window-maximized="1"
     showguides="true"
     inkscape:guide-bbox="true"
     fit-margin-top="2.7755576e-017"
     fit-margin-left="0"
     fit-margin-right="0"
     fit-margin-bottom="0" />
  <metadata
     id="metadata2999">
    <rdf:RDF>
      <cc:Work
         rdf:about="">
        <dc:format>image/svg+xml</dc:format>
        <dc:type
           rdf:resource="http://purl.org/dc/dcmitype/StillImage" />
        <dc:title>Camera</dc:title>
        <cc:license
           rdf:resource="http://creativecommons.org/licenses/publicdomain/" />
        <dc:date>2013-10-08</dc:date>
        <dc:creator>
          <cc:Agent>
            <dc:title>Jeff Jacobson</dc:title>
          </cc:Agent>
        </dc:creator>
      </cc:Work>
      <cc:License
         rdf:about="http://creativecommons.org/licenses/publicdomain/">
        <cc:permits
           rdf:resource="http://creativecommons.org/ns#Reproduction" />
        <cc:permits
           rdf:resource="http://creativecommons.org/ns#Distribution" />
        <cc:permits
           rdf:resource="http://creativecommons.org/ns#DerivativeWorks" />
      </cc:License>
    </rdf:RDF>
  </metadata>
  <g
     id="layer1"
     inkscape:label="Layer 1"
     inkscape:groupmode="layer"
     transform="translate(-4.0625,-3.1562494)">
    <path
       id="camera"
       style="color:#000000;fill:#000000;fill-opacity:1;fill-rule:nonzero;stroke:#ffffff;stroke-width:0.60000002;stroke-miterlimit:4;stroke-opacity:1;stroke-dasharray:none;marker:none;visibility:visible;display:inline;overflow:visible;enable-background:accumulate"
       d="m 17.0625,8.9347043 c 3.104388,0 5.635686,2.5312977 5.635686,5.6356857 0,3.104388 -2.531298,5.635684 -5.635686,5.635684 -3.104388,0 -5.635686,-2.531296 -5.635686,-5.635684 0,-3.104388 2.531298,-5.6356857 5.635686,-5.6356857 z m -2.03125,-4.3409549 -1.96875,2.84375 -7.625,-0.03125 C 5.2750565,7.4057714 5.125,7.5250552 5.125,7.6874994 l 0,13.7499996 c 0,0.162444 0.1500558,0.28125 0.3125,0.28125 l 23.25,0 c 0.162444,0 0.3125,-0.118806 0.3125,-0.28125 L 29,7.6874994 c 0,-0.1624442 -0.150056,-0.28125 -0.3125,-0.28125 l -7.625,0 -1.84375,-2.8125 -4.1875,0 z m 2.03125,4.03125 c 3.270641,0 5.9375,2.6668586 5.9375,5.9374996 0,3.270641 -2.666859,5.9375 -5.9375,5.9375 -3.270641,0 -5.9375,-2.666859 -5.9375,-5.9375 0,-3.270641 2.666859,-5.9374996 5.9375,-5.9374996 z"
       inkscape:connector-curvature="0" />
  </g>
</svg>
